<svg height="512" viewBox="0 0 59 59" width="512" xmlns="http://www.w3.org/2000/svg"><g id="038---Crashed-Alien-Space-Ship" fill="none" transform="translate(0 -1)"><path id="Shape" d="m58.85 29.34c-.1127973-1.0882846-.9254407-1.9740658-2-2.18-1.9838851-.3476828-3.9879752-.5681327-6-.66-1.4035632-1.3732295-3.1192837-2.3855045-5-2.95-1.0948559-1.5795683-2.3627157-3.0319051-3.78-4.33-.3469962-.3082864-.8605124-.3372752-1.24-.07l-3.25 2.27c-.2414322.1700975-.3727433.456884-.3437662.7507939.028977.2939098.2137649.5495316.4837662.6692061l4.59 2c.244885.1047915.4236125.3219998.4792877.5824805.0556753.2604806-.0186396.5317744-.1992877.7275195l-12.85 13.67c-.1677438.1773184-.4322861.2228674-.6496737.1118609-.2173876-.1110064-.3356063-.3520078-.2903263-.5918609l2.29-10.67c.1663025-.8198031-.299586-1.6361765-1.09-1.91l-5-1.86c-.4372735-.1645706-.7856112-.5047939-.960441-.9380677-.1748298-.4332737-.1601624-.9199727.040441-1.3419323l3.92-8.32c.1441516-.3014879.1281782-.6550561-.0425716-.9423176s-.4737061-.4702454-.8074284-.4876824c-16.52-1-28.47 15.57-22.42 32-.0310145-.0682654-.05773322-.1384021-.08-.21-.63062024 1.8476182-.80558248 3.8202317-.51 5.75-1.10509539 1.6981754-2.10690913 3.4613675-3 5.28-.32985598.7685587-.23209581 1.6538527.25750656 2.3319212.48960236.6780686 1.2991853 1.0493878 2.13249344.9780788h34.47c1.2684389-.0010066 2.5127667-.3466532 3.6-1 18.31-10.78 17.71-24.16 17.25-28.66zm-12.93-5.69c.3903735.550241.7508934 1.1210641 1.08 1.71-.34-.59-.7-1.16-1.08-1.71z" fill="#bdc3c7"/><path id="Shape" d="m28.08 14.3-2.29 4.87c-11.56 4.89-19.29 13.3-20.92 25.83-6.24-15.57 5.26-33.11 22.36-32.1.325418.0213846.6199656.2001065.7892147.4788697.1692491.2787631.1919351.6225438.0607853.9211303z" fill="#65ddb9"/><g fill="#46b29d"><path id="Shape" d="m32.87 48.88c-11.87 6.12-23.23 8.6-28-3.88 1.87-14.7 12.13-22.13 20.92-25.83l-1.63 3.45c-.2006034.4219596-.2152708.9086586-.040441 1.3419323.1748298.4332738.5231675.7734971.960441.9380677l5 1.86c.7744941.2890323 1.2209771 1.101206 1.05 1.91l-2.33 10.67c-.04528.2398531.0729387.4808545.2903263.5918609.2173876.1110065.4819299.0654575.6496737-.1118609l12.86-13.71c.1806481-.1957451.254963-.4670389.1992877-.7275195-.0556752-.2604807-.2344027-.477689-.4792877-.5824805l-4.59-2c-.2700013-.1196745-.4547892-.3752963-.4837662-.6692061-.0289771-.2939099.102334-.5806964.3437662-.7507939l3.25-2.27c.3794876-.2672752.8930038-.2382864 1.24.07 1.9520097 1.7910421 3.6120483 3.8762127 4.92 6.18 6 10.29-3.47 18.06-14.13 23.52z"/><path id="Shape" d="m33.86 1.77-.86 12.23c.0229638.3626831.2408783.6843599.569178.8401984s.7153012.1213053 1.010822-.0901984l11.12-9c.2371192-.18778283.3480566-.49324238.2867046-.78942452-.0613521-.29618213-.2845019-.53243792-.5767046-.61057548-3.5962455-.67770137-7.0934595-1.80312567-10.41-3.35-.2557386-.08843658-.5381867-.0513499-.7624258.10010986-.2242391.15145977-.3641152.39962712-.3775742.66989014z"/><path id="Shape" d="m45.45 15h4.75c.206888.0053729.4074301-.0716955.5574743-.2142375.1500443-.1425421.2372888-.3388711.2425257-.5457625v-3.9c-.0063124-.1365191-.0893825-.2576916-.2144428-.3128029-.1250602-.05511131-.2705423-.0346567-.3755572.0528029l-5.25 4.17c-.146028.1138756-.2002434.3099523-.1334589.4826708s.2388073.2813163.4234589.2673292z"/></g><path id="Shape" d="m27 10c-.31 0-.25 0-2.45-1.11-.4487927-.27004734-.6131719-.84063848-.3768341-1.30806218.2363378-.46742371.7933069-.67328819 1.2768341-.47193782l2 1c.4101627.21011265.6236218.6733224.51688 1.12163809-.1067419.44831569-.5060402.76563081-.96688.76836191z" fill="#33907c"/><path id="Shape" d="m29 7c-.5522847 0-1-.44771525-1-1v-2c0-.55228475.4477153-1 1-1s1 .44771525 1 1v2c0 .55228475-.4477153 1-1 1z" fill="#33907c"/><path id="Shape" d="m49 21c-.31 0-.25 0-2.45-1.11-.3460386-.1440974-.5824323-.4696151-.6123817-.8432591s.1515756-.73266.4702434-.9300368c.3186678-.1973769.7209575-.1999648 1.0421383-.0067041l2 1c.4101627.2101126.6236218.6733224.51688 1.1216381-.1067419.4483157-.5060402.7656308-.96688.7683619z" fill="#33907c"/><path id="Shape" d="m41.59 58c-1.084322.6516035-2.3249572.9971843-3.59 1h-14.76c17.91-2.74 34.89-19.27 29.3-30.17-.4437941-.8644247-1.0246459-1.6512763-1.72-2.33 2.0120248.0918673 4.0161149.3123172 6 .66 1.0745593.2059342 1.8872027 1.0917154 2 2.18.49 4.5 1.09 17.88-17.23 28.66z" fill="#7f8c8d"/><path id="Shape" d="m14.18 59h-10.65c-.82856904.0446905-1.62060029-.3453843-2.09025744-1.0294501-.46965714-.6840659-.54913188-1.5633585-.20974256-2.3205499.89309087-1.8186325 1.89490461-3.5818246 3-5.28.6 3.9 3.67 7.46 9.95 8.63z" fill="#7f8c8d"/><path id="Shape" d="m52 56c-.4608398-.0027311-.8601381-.3200462-.96688-.7683619-.1067418-.4483157.1067173-.9115255.51688-1.1216381l2-1c.3211808-.1932607.7234705-.1906728 1.0421383.0067041.3186678.1973768.5001928.5563928.4702434.9300368s-.2663431.6991617-.6123817.8432591c-2.2 1.11-2.13 1.11-2.45 1.11z" fill="#33907c"/><path id="Shape" d="m54 60h-2c-.5522847 0-1-.4477153-1-1s.4477153-1 1-1h2c.5522847 0 1 .4477153 1 1s-.4477153 1-1 1z" fill="#33907c"/><path id="Shape" d="m19.45 24.9c-.2396352.1203794-.5175792.139465-.7714198.0529711-.2538406-.0864938-.4623041-.2713183-.5785802-.5129711l-1.1-2.23c-.1186254-.2227365-.3800496-.3281495-.62-.25l-2.75.89c-1.2422774.3977167-2.5827357-.2182868-3.09-1.42l-.75-1.8c.48-.5 1-1 1.51-1.43.17.17.14.16 1.09 2.46.0773879.2600813.3480937.4109665.61.34l2.76-.89c1.1734904-.3683974 2.4414886.1641619 3 1.26l1.11 2.24c.2176819.4737401.034871 1.0352306-.42 1.29z" fill="#81ccb8"/><path id="Shape" d="m23.93 41c-.9445088.0707964-1.8832532.2044255-2.81.4-.84-1.48-1.72-2-3.87-3.72l.62-1.23c.8077513-1.6032712.4930142-3.5441502-.78-4.81l-.38-.39c-.3921222-.3921222-1.0278778-.3921222-1.42 0s-.3921222 1.0278778 0 1.42l.39.38c.6606319.6628772.8218647 1.6746134.4 2.51l-.79 1.58-5.53 1.86c-1.97692361.4313855-4.04416577.0724893-5.76-1-.21222888-.1302142-.46540221-.1765699-.71-.13 0 .72.13 1.44.25 2.16 1.8737964.9670764 4.00533991 1.3170835 6.09 1 .5733782.5672922 1.0377412 1.2350258 1.37 1.97 0 .5522847.4477153 1 1 1s1-.4477153 1-1c-.1467289-.9497166-.5792562-1.8322117-1.24-2.53l4-1.35 2.41 1.93c1.149872.8923857 1.8248551 2.2644825 1.83 3.72v1.23c0 .5522847.4477153 1 1 1s1-.4477153 1-1c.0568854-.8898715.0031415-1.7833632-.16-2.66.735901-.1576313 1.4805603-.2711668 2.23-.34.3572656-.0250086.6740507-.2387164.8310255-.5606218.1569747-.3219053.1302908-.7031032-.0700001-1-.2002908-.2968968-.5437598-.4643868-.9010254-.4393782z" fill="#81ccb8"/></g></svg>